<svg width="700" height="130" viewBox="0 0 700 130" fill="none" xmlns="http://www.w3.org/2000/svg">
<rect y="0.000244141" width="700" height="129.986" fill="#F16F6F"/>
<rect y="0.000244141" width="700" height="129.986" fill="#F16F6F"/>
<path d="M621.008 21.3467C643.174 34.1548 682.744 32.5283 699.758 30.1141L699.758 -1.90735e-06L485.626 -6.80054e-06C492.918 7.56029 529.621 11.0184 547.362 10.1651C577.744 8.70387 593.299 5.33668 621.008 21.3467Z" fill="white" fill-opacity="0.2"/>
<path d="M699.758 13.183C689.955 14.7713 663.154 16.1308 634.376 8.86278C598.404 -0.222282 586.494 6.57565 553.681 4.2885C520.869 2.00135 491.459 9.11693 464.237 4.2885C446.858 1.20597 427.291 0.211124 415.073 0.0318605L407.362 0.0318603C409.358 -0.00663658 411.98 -0.0135125 415.073 0.0318605L699.758 0.031867L699.758 13.183Z" fill="#6297C1"/>
<path d="M78.75 108.653C56.5833 95.8452 17.0139 97.4717 0 99.8859V130H214.132C206.84 122.44 170.137 118.982 152.396 119.835C122.014 121.296 106.458 124.663 78.75 108.653Z" fill="#F7A3A3"/>
<path d="M0.486328 116.761C10.2896 115.173 37.0905 113.813 65.8683 121.081C101.84 130.166 113.75 123.368 146.563 125.655C179.375 127.942 208.785 120.827 236.007 125.655C253.386 128.738 272.953 129.733 285.171 129.912H292.882C290.886 129.95 288.264 129.957 285.171 129.912H0.486328V116.761Z" fill="#6297C1"/>
</svg>
