<svg width="1201" height="670" viewBox="0 0 1201 670" fill="none" xmlns="http://www.w3.org/2000/svg">
<rect width="1200" height="669.93" fill="#F16F6F"/>
<rect width="1200" height="669.93" fill="#F16F6F"/>
<path d="M1064.58 110.018C1102.58 176.028 1170.42 167.646 1199.58 155.204L1199.58 -0.000167847L832.502 -0.000193065C845.002 38.9645 907.922 56.7868 938.335 52.3893C990.418 44.8583 1017.08 27.5043 1064.58 110.018Z" fill="white" fill-opacity="0.2"/>
<path d="M1200.25 67.9412C1183.44 76.1271 1137.5 83.1342 1088.17 45.6757C1026.5 -1.1474 1006.08 33.8882 949.833 22.1005C893.583 10.3129 843.167 46.9855 796.5 22.1005C766.707 6.21359 733.164 1.08632 712.219 0.162419L699 0.162418C702.422 -0.0359915 706.917 -0.0714221 712.219 0.162419L1200.25 0.162453L1200.25 67.9412Z" fill="#6297C1"/>
<path d="M135 559.983C97 493.972 29.1667 502.354 0 514.797V670.001H367.083C354.583 631.036 291.663 613.214 261.25 617.611C209.167 625.142 182.5 642.496 135 559.983Z" fill="#F7A3A3"/>
<path d="M0.833984 601.768C17.6395 593.582 63.584 586.575 112.917 624.034C174.584 670.857 195.001 635.821 251.251 647.609C307.501 659.397 357.917 622.724 404.584 647.609C434.377 663.496 467.919 668.623 488.865 669.547H502.084C498.662 669.745 494.167 669.781 488.865 669.547H0.833984V601.768Z" fill="#6297C1"/>
</svg>
